<svg width="1154" height="263" viewBox="0 0 1154 263" fill="none" xmlns="http://www.w3.org/2000/svg">
<g style="mix-blend-mode:lighten" opacity="0.25">
<path d="M862.854 0C880.702 0 896.76 7.02312 908.501 18.606L1154 263H0L192.904 70.9649C204.697 59.0151 221.123 51.6251 239.287 51.6251C257.451 51.6251 273.456 58.8055 285.196 70.3884L341.899 126.783C353.639 138.418 369.855 145.651 387.755 145.651C405.656 145.651 421.924 138.471 433.665 126.731L439.772 120.651C451.618 108.439 468.202 100.839 486.629 100.839C505.056 100.839 520.64 107.967 532.433 119.55L577.869 164.624C589.662 176.521 606.036 183.911 624.147 183.911C642.258 183.911 658.895 176.469 670.688 164.414L816.892 18.9205C828.686 7.23276 844.954 0 862.907 0" fill="#6EA894"/>
</g>
</svg>
